<svg xmlns="http://www.w3.org/2000/svg" width="256" height="256"><path fill-opacity=".016" d="M0 128.004v128.004l128.25-.254 128.25-.254.254-127.75L257.008 0H0v128.004m.485.496c0 70.4.119 99.053.265 63.672.146-35.38.146-92.98 0-128C.604 29.153.485 58.1.485 128.5" fill="#1976D2" fill-rule="evenodd"/><path fill-opacity=".315" d="M10.035 1.934C8.569 4.674 8.7 21.3 10.2 22.8c1.593 1.593 229.896 1.754 232.866.165 1.706-.913 1.934-2.168 1.934-10.64 0-7.974-.297-9.83-1.75-10.933C241.819.306 220.503.058 126.285.032 13.382.001 11.05.039 10.035 1.934M10.2 48.2c-1.634 1.634-1.634 19.966 0 21.6.898.898 12.703 1.2 46.965 1.2C110.152 71 105 72.292 105 59s5.152-12-47.835-12c-34.262 0-46.067.302-46.965 1.2m139.232.118c-.278.724-.377 6.012-.219 11.75L149.5 70.5l46.385.26c33.418.187 46.767-.056 47.75-.872 1.794-1.489 1.934-19.919.165-21.688-1.835-1.835-93.663-1.721-94.368.118M10.75 95.08c-2.445 1.424-2.592 18.935-.179 21.349 1.382 1.381 6.944 1.571 46 1.571 52.842 0 48.429 1.181 48.429-12.965 0-7.84-.243-9.095-1.934-10-2.627-1.406-89.898-1.363-92.316.045m140.467-.37c-2.229.427-2.276.691-2 11.071.276 10.386.341 10.649 2.783 11.326 3.263.905 86.737.905 90 0 2.441-.677 2.507-.943 2.782-11.269l.283-10.575-3.158-.632c-3.477-.695-87.03-.623-90.69.079M9.667 141.667c-.834.833-.885 18.602-.06 20.751.541 1.411 5.615 1.582 46.965 1.582 44.809 0 46.392-.065 47.393-1.934 1.11-2.074 1.435-16.861.428-19.484-.541-1.411-5.647-1.582-47.333-1.582-25.7 0-47.027.3-47.393.667m139.55 10.573l.283 11.26h95v-22l-47.783-.26-47.783-.259.283 11.259M9.43 188.321c-.279.727-.377 5.789-.218 11.25L9.5 209.5h235l.287-10.418c.211-7.662-.054-10.634-1-11.235-.708-.449-53.614-.823-117.568-.832-95.455-.012-116.373.222-116.789 1.306m1.32 45.759c-1.49.868-1.75 2.572-1.75 11.47V256h96v-9.929c0-7.692-.354-10.282-1.571-11.5-1.383-1.382-6.94-1.567-46.25-1.541-28.482.02-45.313.4-46.429 1.05m140.5-.374c-2.17.418-2.25.823-2.25 11.364V256h96v-10.525c0-10.377-.036-10.538-2.565-11.5-2.49-.946-86.382-1.194-91.185-.269" fill="#1976D2" fill-rule="evenodd"/><path fill-opacity=".459" d="M11.2 3.2c-1.249 1.249-1.699 14.335-.593 17.218.549 1.43 11.682 1.582 115.8 1.582 88.261 0 115.474-.281 116.393-1.2.727-.727 1.2-4.259 1.2-8.965 0-6.653-.277-7.913-1.934-8.8C239.096 1.446 12.793 1.607 11.2 3.2m-.533 46.467c-.947.947-.8 16.575.17 18.104.633.996 10.388 1.268 45.235 1.261 24.435-.006 44.991-.015 45.678-.021.916-.008 1.25-2.684 1.25-10.011V49H57.167c-25.209 0-46.134.3-46.5.667m139.758.667c-.281.733-.379 5.121-.218 9.75l.293 8.416 45.5.262c41.887.242 45.599.128 46.75-1.441 1.625-2.214 1.663-15.508.05-17.121-1.848-1.848-91.664-1.719-92.375.134M11.21 96.19c-1.635 1.635-1.604 15.891.04 18.131 1.15 1.568 4.833 1.683 46.25 1.442l45-.263v-20l-45.04-.26c-34.198-.197-45.331.031-46.25.95m140.54-.501c-1.501.393-1.75 1.722-1.75 9.349 0 7.767.245 9.023 1.934 9.927 1.248.668 17.333 1.035 45.345 1.035 50.782 0 46.721.982 46.721-11.294 0-6.526-.281-7.786-1.934-8.671-1.905-1.019-86.498-1.343-90.316-.346M10.667 142.667c-.83.83-.857 15.023-.034 18.093l.605 2.26 45.631-.26 45.631-.26.285-10.25.285-10.25H57.202c-25.228 0-46.169.3-46.535.667M150 151.883c0 8.108.287 10.013 1.582 10.51.87.334 21.581.607 46.025.607h44.443l1.014-2.668c.558-1.467.884-6.08.725-10.25l-.289-7.582-46.75-.26-46.75-.26v9.903M10.667 188.667c-.834.833-.884 16.604-.06 18.751.549 1.43 11.696 1.582 115.965 1.582 113.027 0 115.379-.039 116.393-1.934 1.449-2.708 1.323-16.378-.165-17.866-.919-.919-28.119-1.2-116.333-1.2-63.324 0-115.434.3-115.8.667m-.06 47.915c-.334.87-.607 5.595-.607 10.5V256h93v-21H57.107c-40.926 0-45.959.171-46.5 1.582m140.06-.915c-.367.366-.667 5.091-.667 10.5V256h94v-8.566c0-13.792 5.174-12.434-47.369-12.434-24.913 0-45.598.3-45.964.667" fill="#1976D2" fill-rule="evenodd"/><path fill-opacity=".978" d="M11.859 4.087c-.522.323-.816 4.148-.654 8.5L11.5 20.5h230l.29-8.242.291-8.241-114.636-.259c-63.05-.142-115.064.006-115.586.329m-.192 46.58c-.942.941-.803 14.571.164 16.094.628.989 10.35 1.204 45.235 1L101.5 67.5l.289-8.75.289-8.75H57.206c-24.68 0-45.173.3-45.539.667m140.01-.011c-.372.373-.677 3.962-.677 7.975 0 6.192.293 7.456 1.934 8.334 2.337 1.25 85.904 1.425 87.861.183.925-.587 1.211-3.08 1-8.735L241.5 50.5l-44.573-.26c-24.515-.143-44.878.044-45.25.416M11.422 97.344c-.284.739-.382 4.676-.219 8.75l.297 7.406 45.25.26 45.25.26V96H56.969c-36.776 0-45.126.246-45.547 1.344m140.828-.687c-1.804.736-1.705 14.72.115 16.231.982.815 13.682 1.06 45.25.873l43.885-.261v-17l-44-.176c-24.2-.097-44.562.053-45.25.333M11.015 150.75c.009 4.262.379 8.322.823 9.022.633.997 10.383 1.271 45.234 1.273l44.428.002.288-9.023.287-9.024H11l.015 7.75m140.652-7.083c-.942.941-.803 14.571.164 16.094.628.989 10.35 1.204 45.235 1l44.434-.261.289-8.75.289-8.75h-44.872c-24.68 0-45.173.3-45.539.667m-140 46c-.834.833-.883 14.607-.06 16.751.549 1.43 11.549 1.582 114.3 1.582 87.095 0 113.974-.281 114.893-1.2.741-.741 1.2-4.378 1.2-9.5V189H127.167c-63.159 0-115.134.3-115.5.667m-.06 47.915c-.334.87-.607 5.37-.607 10V256h91v-20H57.107c-40.014 0-44.959.172-45.5 1.582m140.428.352c-.569 1.064-1.035 5.564-1.035 10V256h91v-8.418c0-4.63-.273-9.13-.607-10-.541-1.409-5.395-1.582-44.465-1.582-42.337 0-43.894.067-44.893 1.934" fill="#1976D2" fill-rule="evenodd"/></svg>